<?xml version="1.0" encoding="UTF-8" standalone="no"?>
<!-- Created with Inkscape (http://www.inkscape.org/) -->

<svg
   version="1.1"
   id="svg1"
   width="1621.9232"
   height="400.00354"
   viewBox="0 0 1621.9232 400.00354"
   xmlns:xlink="http://www.w3.org/1999/xlink"
   xmlns="http://www.w3.org/2000/svg"
   xmlns:svg="http://www.w3.org/2000/svg">
  <defs
     id="defs1">
    <linearGradient
       id="linearGradient1">
      <stop
         style="stop-color:#ab61fc;stop-opacity:1;"
         offset="0"
         id="stop1" />
      <stop
         style="stop-color:#b948db;stop-opacity:1;"
         offset="1"
         id="stop2" />
    </linearGradient>
    <linearGradient
       xlink:href="#linearGradient1"
       id="linearGradient2"
       x1="193.2216"
       y1="337.32059"
       x2="189.15129"
       y2="36.303616"
       gradientUnits="userSpaceOnUse"
       gradientTransform="translate(0.21507,-8.21507)" />
  </defs>
  <g
     id="g1"
     transform="matrix(1,0,0,-1,-32.217442,439.78495)">
    <path
       d="m 230.68383,439.78495 c -1.55083,0 -3.06484,-0.15765 -4.52734,-0.45704 -1.46251,-0.29938 -2.87277,-0.73997 -4.2168,-1.30859 -1.34403,-0.56861 -2.621,-1.26457 -3.81641,-2.07226 -1.1954,-0.8077 -2.30954,-1.72752 -3.32617,-2.74415 -1.01662,-1.01662 -1.93644,-2.13076 -2.74414,-3.32617 -0.80769,-1.1954 -1.50365,-2.47237 -2.07227,-3.8164 -0.56861,-1.34403 -1.00921,-2.75429 -1.30859,-4.2168 -0.29938,-1.46251 -0.45703,-2.97651 -0.45703,-4.52734 v -25.53125 c 0,-6.0225 -0.10989,-11.9385 -0.33203,-17.75391 -0.22214,-5.81541 -0.55748,-11.53117 -1.00586,-17.14844 -0.44838,-5.61727 -1.01074,-11.13636 -1.68945,-16.56445 -0.67872,-5.42809 -1.47357,-10.76387 -2.38672,-16.01172 -0.91315,-5.24785 -1.94403,-10.4078 -3.09571,-15.48437 -1.15168,-5.07658 -2.42405,-10.07014 -3.81836,-14.98438 -1.3943,-4.91424 -2.90975,-9.7489 -4.55078,-14.50977 -1.64103,-4.76086 -3.40697,-9.44802 -5.29882,-14.06445 -1.89186,-4.61643 -3.90987,-9.16357 -6.05665,-13.64453 -2.14677,-4.48095 -4.42233,-8.89557 -6.82812,-13.25 -2.40579,-4.35443 -4.94243,-8.64791 -7.61133,-12.88477 -2.6689,-4.23685 -5.47014,-8.41669 -8.40625,-12.54492 -2.9361,-4.12823 -6.00743,-8.20581 -9.21484,-12.23438 -3.20741,-4.02856 -6.55039,-8.00943 -10.03321,-11.94727 -3.48281,-3.93783 -7.10487,-7.83143 -10.86718,-11.6875 -3.76232,-3.85606 -7.66503,-7.67377 -11.71094,-11.45703 l -16.53125,38.60939 c -0.295,0.68616 -0.63998,1.34076 -1.0293,1.95898 -0.38932,0.61822 -0.82215,1.20059 -1.29492,1.74414 -0.47277,0.54355 -0.98589,1.04761 -1.53125,1.50977 -0.54536,0.46216 -1.12339,0.88181 -1.73047,1.25586 -0.60708,0.37404 -1.24245,0.70126 -1.90039,0.98046 -0.65794,0.27921 -1.33917,0.50987 -2.03711,0.6875 -0.69794,0.17764 -1.41356,0.30371 -2.14063,0.37305 -0.72706,0.0693 -1.4656,0.0828 -2.21093,0.0371 -0.74484,-0.0475 -1.47531,-0.15315 -2.1875,-0.3125 -0.71219,-0.15935 -1.40463,-0.37357 -2.07422,-0.63672 -0.6696,-0.26314 -1.31655,-0.5747 -1.9336,-0.93359 -0.61704,-0.35889 -1.20522,-0.76436 -1.75976,-1.21094 -0.55454,-0.44658 -1.07456,-0.93471 -1.55664,-1.46094 -0.48209,-0.52622 -0.9265,-1.08968 -1.32617,-1.6875 -0.39968,-0.59781 -0.75519,-1.22927 -1.0625,-1.89062 -0.30732,-0.66135 -0.56649,-1.35349 -0.77149,-2.07032 L 32.9807,65.15992 c -0.24333,-0.85266 -0.42962,-1.7182 -0.55664,-2.58984 -0.12702,-0.87164 -0.19433,-1.74999 -0.20508,-2.62891 -0.0108,-0.87891 0.0352,-1.75833 0.14063,-2.63281 0.10548,-0.87448 0.27052,-1.74323 0.49219,-2.60156 0.22266,-0.85933 0.50163,-1.69965 0.83398,-2.51563 0.33235,-0.81597 0.71788,-1.60817 1.1543,-2.37109 0.43641,-0.76292 0.92217,-1.49712 1.45703,-2.19727 0.53485,-0.70014 1.11843,-1.36647 1.74609,-1.99414 0.62767,-0.629 1.29487,-1.21339 1.9961,-1.75 0.70122,-0.5366 1.43658,-1.0248 2.20117,-1.46289 0.76458,-0.43808 1.55727,-0.82672 2.375,-1.16015 0.81773,-0.33344 1.66082,-0.61132 2.52148,-0.83399 0.86067,-0.224 1.7324,-0.38976 2.60938,-0.49609 0.87697,-0.10633 1.75904,-0.15358 2.64062,-0.14258 0.88158,0.011 1.76224,0.081 2.63672,0.20898 0.87448,0.128 1.74199,0.31393 2.59766,0.5586 l 137.39062,39.25 c 0.71734,0.20633 1.4087,0.46691 2.07032,0.77539 0.66162,0.30848 1.29467,0.66574 1.89258,1.06641 0.5979,0.40066 1.16131,0.84523 1.6875,1.32812 0.52618,0.4829 1.01448,1.00343 1.46093,1.55859 0.44646,0.55517 0.85026,1.14424 1.20899,1.76172 0.35872,0.61748 0.67256,1.26376 0.93554,1.9336 0.26299,0.66983 0.47552,1.36394 0.63477,2.07617 0.15925,0.71223 0.265,1.44283 0.3125,2.1875 0.045,0.74033 0.0319,1.47532 -0.0371,2.19922 -0.069,0.7239 -0.19461,1.43663 -0.37109,2.13281 -0.17648,0.696195 -0.40413,1.376015 -0.68164,2.033215 -0.27752,0.65719 -0.60448,1.291525 -0.97657,1.898435 -0.37208,0.60692 -0.78981,1.18511 -1.25,1.73047 -0.46018,0.54536 -0.96209,1.05678 -1.5039,1.5293 -0.54181,0.47252 -1.12326,0.90652 -1.74024,1.29492 -0.61697,0.3884 -1.26941,0.73239 -1.95508,1.02539 l -35.26562,15.10938 c 2.8955,2.77149 5.73321,5.56483 8.51172,8.38086 2.7785,2.81602 5.49825,5.65391 8.16015,8.51562 2.66191,2.86171 5.26487,5.7477 7.81055,8.65625 2.54569,2.90856 5.03303,5.84032 7.46289,8.79688 2.42986,2.95656 4.80276,5.93763 7.11719,8.94335 2.31443,3.00573 4.57015,6.03576 6.76953,9.09179 2.19938,3.05605 4.34301,6.13857 6.42774,9.2461 2.08472,3.10752 4.11157,6.24022 6.08203,9.40039 1.97045,3.16016 3.88365,6.34658 5.74023,9.56054 1.85658,3.21397 3.6573,6.4557 5.40039,9.72462 1.74309,3.26892 3.42861,6.56559 5.0586,9.89063 1.62999,3.32503 3.20342,6.67824 4.7207,10.06054 1.51728,3.38231 2.97785,6.79364 4.38281,10.23438 1.40496,3.44074 2.75385,6.91177 4.04688,10.41211 1.29302,3.50033 2.5314,7.03071 3.71289,10.5918 1.18148,3.56108 2.30662,7.15239 3.37695,10.77539 1.07033,-3.623 2.19547,-7.21431 3.37695,-10.77539 1.18149,-3.56109 2.41987,-7.09147 3.71289,-10.5918 1.29303,-3.50034 2.64192,-6.97137 4.04688,-10.41211 1.40496,-3.44074 2.86553,-6.85207 4.38281,-10.23438 1.51728,-3.3823 3.09071,-6.73551 4.7207,-10.06054 1.62999,-3.32504 3.31551,-6.62171 5.0586,-9.89063 1.74309,-3.26892 3.54381,-6.51065 5.40039,-9.72462 1.85658,-3.21396 3.76978,-6.40038 5.74023,-9.56054 1.97046,-3.16017 3.99731,-6.29287 6.08203,-9.40039 2.08473,-3.10753 4.22836,-6.19005 6.42774,-9.2461 2.19938,-3.05603 4.4551,-6.08606 6.76953,-9.0918 2.31443,-3.00571 4.68733,-5.98678 7.11719,-8.94334 2.42986,-2.95656 4.9172,-5.88832 7.46289,-8.79688 2.54568,-2.90855 5.14864,-5.79454 7.81054,-8.65625 2.66191,-2.86171 5.38166,-5.6996 8.16016,-8.51563 2.77851,-2.81602 5.61622,-5.60936 8.51172,-8.38085 l -35.26563,-15.10938 c -0.68566,-0.293 -1.3381,-0.63699 -1.95507,-1.02539 -0.61698,-0.3884 -1.19843,-0.8224 -1.74024,-1.29492 -0.54181,-0.47252 -1.04372,-0.98394 -1.5039,-1.5293 -0.46019,-0.54536 -0.87792,-1.12355 -1.25,-1.73047 -0.37209,-0.60691 -0.69905,-1.241245 -0.97657,-1.898435 -0.27751,-0.6572 -0.50516,-1.33702 -0.68164,-2.033215 -0.17648,-0.69618 -0.30212,-1.40891 -0.37109,-2.13281 -0.069,-0.7239 -0.0821,-1.45889 -0.0371,-2.19922 0.0475,-0.74467 0.15325,-1.47527 0.3125,-2.1875 0.15925,-0.71223 0.37178,-1.40634 0.63477,-2.07617 0.26298,-0.66984 0.57682,-1.31612 0.93554,-1.9336 0.35873,-0.61748 0.76253,-1.20655 1.20899,-1.76172 0.44645,-0.55516 0.93475,-1.07569 1.46093,-1.55859 0.52619,-0.48289 1.0896,-0.92746 1.6875,-1.32812 0.59791,-0.40067 1.23096,-0.75793 1.89258,-1.06641 0.66162,-0.30848 1.35298,-0.56906 2.07031,-0.77539 l 137.39063,-39.25 c 0.85567,-0.24467 1.72318,-0.4306 2.59766,-0.5586 0.87447,-0.12799 1.75513,-0.19798 2.63671,-0.20898 0.88159,-0.011 1.76365,0.0362 2.64063,0.14258 0.87698,0.10633 1.74871,0.27209 2.60937,0.49609 0.86067,0.22267 1.70376,0.50055 2.52149,0.83399 0.81773,0.33343 1.61042,0.72207 2.375,1.16015 0.76458,0.43809 1.49994,0.92629 2.20117,1.46289 0.70123,0.53661 1.36843,1.121 1.99609,1.75 0.62767,0.62767 1.21125,1.294 1.7461,1.99414 0.53485,0.70015 1.02061,1.43435 1.45703,2.19727 0.43642,0.76292 0.82194,1.55512 1.1543,2.37109 0.33235,0.81598 0.61131,1.6563 0.83398,2.51563 0.22167,0.85833 0.38671,1.72708 0.49219,2.60156 0.10548,0.87448 0.15137,1.7539 0.14062,2.63281 -0.0107,0.87892 -0.078,1.75727 -0.20507,2.62891 -0.12703,0.87164 -0.31331,1.73718 -0.55665,2.58984 l -39.25,137.40626 c -0.20566,0.71683 -0.46562,1.40897 -0.77343,2.07032 -0.30782,0.66135 -0.66445,1.29281 -1.06446,1.89062 -0.40001,0.59782 -0.84392,1.16128 -1.32617,1.6875 -0.48225,0.52623 -1.0021,1.01436 -1.55664,1.46094 -0.55454,0.44658 -1.14289,0.85205 -1.75976,1.21094 -0.61688,0.35889 -1.26238,0.67045 -1.93164,0.93359 -0.66926,0.26315 -1.36253,0.47737 -2.07422,0.63672 -0.71169,0.15935 -1.44138,0.265 -2.18555,0.3125 -0.74533,0.0457 -1.48387,0.0322 -2.21094,-0.0371 -0.72706,-0.0693 -1.44269,-0.19541 -2.14062,-0.37305 -0.69794,-0.17763 -1.37917,-0.40829 -2.03711,-0.6875 -0.65794,-0.2792 -1.29331,-0.60642 -1.90039,-0.98046 -0.60709,-0.37405 -1.18511,-0.7937 -1.73047,-1.25586 -0.54536,-0.46216 -1.05848,-0.96622 -1.53125,-1.50977 -0.47277,-0.54355 -0.90561,-1.12592 -1.29492,-1.74414 -0.38932,-0.61822 -0.7343,-1.27282 -1.0293,-1.95898 l -16.53125,-38.60939 c -4.04591,3.78325 -7.94862,7.60097 -11.71094,11.45703 -3.76231,3.85607 -7.38437,7.74967 -10.86719,11.6875 -3.48281,3.93784 -6.82579,7.91871 -10.0332,11.94727 -3.20741,4.02857 -6.27874,8.10615 -9.21484,12.23438 -2.93611,4.12823 -5.73735,8.30807 -8.40625,12.54492 -2.6689,4.23686 -5.20554,8.53034 -7.61133,12.88477 -2.40579,4.35443 -4.68135,8.76905 -6.82813,13.25 -2.14677,4.48096 -4.16478,9.0281 -6.05664,13.64453 -1.89185,4.61643 -3.65779,9.30359 -5.29882,14.06445 -1.64103,4.76087 -3.15648,9.59553 -4.55079,14.50977 -1.3943,4.91424 -2.66667,9.9078 -3.81835,14.98438 -1.15168,5.07657 -2.18256,10.23652 -3.09571,15.48437 -0.91315,5.24785 -1.708,10.58363 -2.38672,16.01172 -0.67871,5.42809 -1.24107,10.94718 -1.68945,16.56445 -0.44838,5.61727 -0.78372,11.33303 -1.00586,17.14844 -0.22216,5.81541 -0.33205,11.73141 -0.33205,17.75391 v 25.53125 c 0,1.55083 -0.15765,3.06483 -0.45703,4.52734 -0.29938,1.46251 -0.73998,2.87277 -1.3086,4.2168 -0.56861,1.34403 -1.26457,2.621 -2.07226,3.8164 -0.8077,1.19541 -1.72752,2.30955 -2.74414,3.32617 -1.01663,1.01663 -2.13077,1.93645 -3.32617,2.74415 -1.19541,0.80769 -2.47238,1.50365 -3.81641,2.07226 -1.34403,0.56862 -2.75429,1.00921 -4.2168,1.30859 -1.4625,0.29939 -2.97651,0.45704 -4.52734,0.45704 z"
       style="fill:url(#linearGradient2)"
       id="path3" />
  </g>
  <g
     id="layer1"
     transform="translate(-32.217442,-56.211159)">
    <text
       xml:space="preserve"
       style="font-style:normal;font-variant:normal;font-weight:normal;font-stretch:normal;font-size:560px;font-family:Baskerville;-inkscape-font-specification:Baskerville;letter-spacing:-15px;fill:#f1f1f1"
       x="610"
       y="394"
       id="text1"><tspan
         x="610"
         y="394"
         id="tspan2">avert</tspan></text>
  </g>
</svg>
